<?xml version="1.0" encoding="UTF-8" standalone="no"?>
<!-- Created with Inkscape (http://www.inkscape.org/) -->

<svg
   version="1.1"
   id="svg2"
   width="5.0799999cm"
   height="5.0799999cm"
   viewBox="0 0 192 192"
   sodipodi:docname="datafairy_badge.svg"
   xml:space="preserve"
   inkscape:version="1.2.1 (9c6d41e410, 2022-07-14)"
   inkscape:export-filename="StuHexBadge.png"
   inkscape:export-xdpi="96"
   inkscape:export-ydpi="96"
   xmlns:inkscape="http://www.inkscape.org/namespaces/inkscape"
   xmlns:sodipodi="http://sodipodi.sourceforge.net/DTD/sodipodi-0.dtd"
   xmlns="http://www.w3.org/2000/svg"
   xmlns:svg="http://www.w3.org/2000/svg"
   xmlns:rdf="http://www.w3.org/1999/02/22-rdf-syntax-ns#"
   xmlns:cc="http://creativecommons.org/ns#"
   xmlns:dc="http://purl.org/dc/elements/1.1/"><title
     id="title1158">datafairy hexagonal badge</title><defs
     id="defs6"><rect
       x="74.025241"
       y="47.78495"
       width="64.333286"
       height="111.65625"
       id="rect3424" /><rect
       x="72.920387"
       y="70.158251"
       width="56.623785"
       height="58.281067"
       id="rect3258" /><clipPath
       clipPathUnits="userSpaceOnUse"
       id="clipPath11912"><path
         id="path11914"
         style="fill:#000000;fill-opacity:0.431871;stroke-width:0.105956;stroke-linecap:round;stroke-dashoffset:6"
         inkscape:label="HexBg"
         d="M 157.96063,52.698728 V 139.30127 L 82.960625,182.60254 7.960626,139.30127 7.960625,52.698727 82.960624,9.397457 Z"
         clip-path="none" /></clipPath><clipPath
       clipPathUnits="userSpaceOnUse"
       id="clipPath5172"><path
         sodipodi:type="star"
         style="display:inline;fill:#000000;fill-opacity:0.528868;stroke-width:0.203;stroke-linecap:round;stroke-dashoffset:6"
         id="path5174"
         inkscape:flatsided="true"
         sodipodi:sides="6"
         sodipodi:cx="0"
         sodipodi:cy="0"
         sodipodi:r1="165.92125"
         sodipodi:r2="143.69202"
         sodipodi:arg1="0"
         sodipodi:arg2="0.52359878"
         inkscape:rounded="0"
         inkscape:randomized="0"
         d="m 165.92125,0 -82.960625,143.69202 -165.92125,0 L -165.92125,0 l 82.960625,-143.69202 165.92125,0 z"
         transform="matrix(0.50107168,-0.28929387,0.28929387,0.50107168,95.999999,95.999999)"
         inkscape:label="HexBg" /></clipPath></defs><sodipodi:namedview
     id="namedview4"
     pagecolor="#ffffff"
     bordercolor="#111111"
     borderopacity="1"
     inkscape:showpageshadow="0"
     inkscape:pageopacity="0"
     inkscape:pagecheckerboard="1"
     inkscape:deskcolor="#d1d1d1"
     showgrid="false"
     inkscape:zoom="3.6203867"
     inkscape:cx="32.040776"
     inkscape:cy="121.9483"
     inkscape:window-width="1920"
     inkscape:window-height="991"
     inkscape:window-x="-9"
     inkscape:window-y="-9"
     inkscape:window-maximized="1"
     inkscape:current-layer="layer1"
     inkscape:document-units="cm" /><g
     inkscape:groupmode="layer"
     id="layer1"
     inkscape:label="datafairyHexBadge"
     style="display:inline"><path
       sodipodi:type="star"
       style="display:inline;fill:#77eeaa;fill-opacity:1;stroke-width:0.203;stroke-linecap:round;stroke-dashoffset:6"
       id="path6784"
       inkscape:flatsided="true"
       sodipodi:sides="6"
       sodipodi:cx="0"
       sodipodi:cy="0"
       sodipodi:r1="165.92125"
       sodipodi:r2="143.69202"
       sodipodi:arg1="0"
       sodipodi:arg2="0.52359878"
       inkscape:rounded="0"
       inkscape:randomized="0"
       d="m 165.92125,0 -82.960625,143.69202 -165.92125,0 L -165.92125,0 l 82.960625,-143.69202 165.92125,0 z"
       transform="matrix(0.50107168,-0.28929387,0.28929387,0.50107168,95.999999,95.999999)"
       inkscape:label="HexBg"
       sodipodi:insensitive="true" /><path
       sodipodi:type="star"
       style="display:inline;fill:none;fill-opacity:1;stroke:#ffffff;stroke-width:7.55072072;stroke-linecap:round;stroke-linejoin:round;stroke-dasharray:none;stroke-dashoffset:6;stroke-opacity:1;paint-order:stroke fill markers"
       id="path14116"
       inkscape:flatsided="true"
       sodipodi:sides="6"
       sodipodi:cx="0"
       sodipodi:cy="0"
       sodipodi:r1="165.92125"
       sodipodi:r2="143.69202"
       sodipodi:arg1="0"
       sodipodi:arg2="0.52359878"
       inkscape:rounded="0"
       inkscape:randomized="0"
       d="m 165.92125,0 -82.960625,143.69202 -165.92125,0 L -165.92125,0 l 82.960625,-143.69202 165.92125,0 z"
       transform="matrix(0.45877761,-0.26487538,0.26487538,0.45877761,95.999999,95.999999)"
       inkscape:label="HexFrame"
       sodipodi:insensitive="true" /><g
       id="g5329"
       transform="translate(-9.6414773,8.5560043)"
       inkscape:label="dfLogo"
       style="display:inline"><g
         id="g5240"
         inkscape:label="Wings"
         transform="matrix(1.6458091,0.28488727,-0.28488727,1.6458091,-14.295973,-85.841282)"
         style="display:inline"><path
           style="fill:#ffffff;fill-opacity:1;stroke-width:3.77953;stroke-linejoin:round;stroke-dashoffset:6;paint-order:stroke fill markers"
           d="m 98.94689,75.227884 c 0.15204,-2.599647 0.33328,-8.979175 2.14844,-12.109375 1.81516,-3.1302 3.78521,-5.089032 7.22656,-6.030161 3.44135,-0.941129 10.05831,-0.164737 11.83821,1.928598 1.7799,2.093335 0.42151,3.033498 0,4.492188 -0.42151,1.45869 -0.5607,1.751426 -2.46321,3.90625 -1.90251,2.154824 -6.57935,6.207866 -9.76562,8.007812 -3.18627,1.799946 -7.031,4.289977 -8.78907,3.125 -1.75807,-1.164977 -0.34735,-0.720665 -0.19531,-3.320312 z"
           id="path3428"
           inkscape:label="Wing2"
           sodipodi:nodetypes="zzzzzzzzz" /><path
           style="fill:#ffffff;fill-opacity:1;stroke-width:3.77953;stroke-linejoin:round;stroke-dashoffset:6;paint-order:stroke fill markers"
           d="m 97.697082,75.227884 c -0.15204,-2.599647 -0.33328,-8.979175 -2.14844,-12.109375 -1.815158,-3.1302 -3.785208,-5.089032 -7.226558,-6.030161 -3.44135,-0.941129 -10.05831,-0.164737 -11.83821,1.928598 -1.7799,2.093335 -0.42151,3.033498 0,4.492188 0.42151,1.45869 0.5607,1.751426 2.46321,3.90625 1.90251,2.154824 6.57935,6.207866 9.76562,8.007812 3.18627,1.799946 7.030998,4.289977 8.789068,3.125 1.75807,-1.164977 0.34735,-0.720665 0.19531,-3.320312 z"
           id="path5201"
           inkscape:label="Wing1"
           sodipodi:nodetypes="zzzzzzzzz" /><path
           style="fill:#ffffff;fill-opacity:1;stroke-width:3.77953;stroke-linejoin:round;stroke-dashoffset:6;paint-order:stroke fill markers"
           d="m 97.697079,82.233673 c -0.15204,2.599647 -0.33328,8.979175 -2.148437,12.109375 -1.815158,3.1302 -3.785208,5.089032 -7.226558,6.030162 -3.44135,0.94113 -10.05831,0.16473 -11.83821,-1.928599 -1.7799,-2.093335 -0.42151,-3.033498 0,-4.492188 0.42151,-1.45869 0.5607,-1.751426 2.46321,-3.90625 1.90251,-2.154824 6.57935,-6.207866 9.76562,-8.007812 3.18627,-1.799946 7.030998,-4.289977 8.789065,-3.125 1.75807,1.164977 0.34735,0.720665 0.19531,3.320312 z"
           id="path5203"
           inkscape:label="Wing3"
           sodipodi:nodetypes="zzzzzzzzz" /><path
           style="fill:#ffffff;fill-opacity:1;stroke-width:3.77953;stroke-linejoin:round;stroke-dashoffset:6;paint-order:stroke fill markers"
           d="m 98.94689,82.312413 c 0.15204,2.599647 0.33328,8.979175 2.14844,12.109375 1.81516,3.1302 3.78521,5.089032 7.22656,6.030162 3.44135,0.94113 10.05831,0.16474 11.83821,-1.9286 1.7799,-2.093334 0.42151,-3.033497 0,-4.492187 -0.42151,-1.45869 -0.5607,-1.751426 -2.46321,-3.90625 -1.90251,-2.154824 -6.57935,-6.207866 -9.76562,-8.007812 -3.18627,-1.799946 -7.031,-4.289977 -8.78907,-3.125 -1.75807,1.164977 -0.34735,0.720665 -0.19531,3.320312 z"
           id="path5234"
           inkscape:label="Wing4"
           sodipodi:nodetypes="zzzzzzzzz" /></g><g
         id="g5297"
         inkscape:label="df"
         transform="matrix(0.79902258,0,0,0.79902258,21.451069,7.8157577)"
         style="display:inline"><g
           aria-label="f"
           id="text5244"
           style="font-style:italic;font-weight:bold;font-size:120px;font-family:Arial;-inkscape-font-specification:'Arial Bold Italic';text-align:center;text-anchor:middle;display:inline;fill:#ffffff;stroke-width:3.77953;stroke-linejoin:round;stroke-dashoffset:6;paint-order:stroke fill markers"
           transform="translate(-2.0347186,2.0139564)"
           inkscape:label="f"><path
             d="m 113.59703,139.68164 11.30859,-54.023437 h -9.49218 l 1.69922,-8.203125 h 9.49218 l 1.81641,-8.847656 q 1.40625,-6.621094 2.87109,-9.550781 1.52344,-2.929688 4.86328,-4.804688 3.39844,-1.933594 9.19922,-1.933594 4.04297,0 11.71875,1.699219 L 155.14,63.275391 q -5.39063,-1.40625 -9.02344,-1.40625 -3.10547,0 -4.74609,1.582031 -1.58203,1.523437 -2.75391,7.324219 l -1.40625,6.679687 h 11.83594 l -1.69922,8.203125 H 135.51109 L 124.2025,139.68164 Z"
             style="font-weight:normal;-inkscape-font-specification:'Arial Italic';stroke:#77eeaa;stroke-width:7.50917;stroke-linecap:round;stroke-linejoin:round;stroke-dasharray:none;stroke-opacity:1;paint-order:stroke fill markers"
             id="path5287" /></g><g
           aria-label="d"
           id="text5285"
           style="font-style:italic;font-weight:bold;font-size:120px;font-family:Arial;-inkscape-font-specification:'Arial Bold Italic';text-align:center;text-anchor:middle;fill:#ffffff;stroke-width:3.78415;stroke-linejoin:round;stroke-dasharray:none;stroke-dashoffset:6;paint-order:stroke fill markers"
           transform="translate(-5.8539794,26.74563)"
           inkscape:label="d"><path
             d="m 78.276375,129.22266 q -9.082031,10.42968 -18.984375,10.42968 -8.847656,0 -14.765625,-6.5039 -5.859375,-6.5625 -5.859375,-18.98438 0,-11.36718 4.628906,-20.742185 4.6875,-9.433594 11.660156,-14.121094 7.03125,-4.6875 14.0625,-4.6875 11.601563,0 17.519532,11.191406 l 7.03125,-33.457031 H 104.11622 L 86.186531,138.24609 h -9.785156 z m -29.0625,-17.05078 q 0,6.5039 1.289062,10.2539 1.289063,3.75 4.394532,6.26953 3.105468,2.46094 7.441406,2.46094 7.207031,0 13.066406,-7.5 7.851563,-9.96094 7.851563,-24.609375 0,-7.382813 -3.867188,-11.542969 -3.867187,-4.160156 -9.726562,-4.160156 -3.808594,0 -6.972657,1.699219 -3.105468,1.699218 -6.210937,5.800781 -3.046875,4.042969 -5.15625,10.3125 -2.109375,6.26953 -2.109375,11.01563 z"
             style="font-weight:normal;-inkscape-font-specification:'Arial Italic';stroke:#77eeaa;stroke-width:7.50917;stroke-linecap:round;stroke-linejoin:round;stroke-dasharray:none;stroke-opacity:1;paint-order:stroke fill markers"
             id="path5290" /></g></g></g></g><metadata
     id="metadata1156"><rdf:RDF><cc:Work
         rdf:about=""><cc:license
           rdf:resource="http://creativecommons.org/licenses/by-nc/4.0/" /><dc:date>Lisa</dc:date><dc:title>datafairy hexagonal badge</dc:title></cc:Work><cc:License
         rdf:about="http://creativecommons.org/licenses/by-nc/4.0/"><cc:permits
           rdf:resource="http://creativecommons.org/ns#Reproduction" /><cc:permits
           rdf:resource="http://creativecommons.org/ns#Distribution" /><cc:requires
           rdf:resource="http://creativecommons.org/ns#Notice" /><cc:requires
           rdf:resource="http://creativecommons.org/ns#Attribution" /><cc:prohibits
           rdf:resource="http://creativecommons.org/ns#CommercialUse" /><cc:permits
           rdf:resource="http://creativecommons.org/ns#DerivativeWorks" /></cc:License></rdf:RDF></metadata></svg>
